<svg width="20" height="20" viewBox="0 0 20 20" fill="none" xmlns="http://www.w3.org/2000/svg">
<path d="M6.66732 18.3327C7.12756 18.3327 7.50065 17.9596 7.50065 17.4993C7.50065 17.0391 7.12756 16.666 6.66732 16.666C6.20708 16.666 5.83398 17.0391 5.83398 17.4993C5.83398 17.9596 6.20708 18.3327 6.66732 18.3327Z" stroke="white" stroke-width="1.66667" stroke-linecap="round" stroke-linejoin="round"/>
<path d="M15.8333 18.3327C16.2936 18.3327 16.6667 17.9596 16.6667 17.4993C16.6667 17.0391 16.2936 16.666 15.8333 16.666C15.3731 16.666 15 17.0391 15 17.4993C15 17.9596 15.3731 18.3327 15.8333 18.3327Z" stroke="white" stroke-width="1.66667" stroke-linecap="round" stroke-linejoin="round"/>
<path d="M1.70898 1.70898H3.37565L5.59232 12.059C5.67363 12.438 5.88454 12.7769 6.18874 13.0172C6.49294 13.2575 6.87141 13.3843 7.25898 13.3756H15.409C15.7883 13.375 16.1561 13.2451 16.4515 13.0072C16.747 12.7693 16.9524 12.4378 17.034 12.0673L18.409 5.87565H4.26732" stroke="white" stroke-width="1.66667" stroke-linecap="round" stroke-linejoin="round"/>
</svg>
