<svg width="110" height="36" viewBox="0 0 110 36" fill="none" xmlns="http://www.w3.org/2000/svg">
<path d="M2.34943 29V7.18182H16.7955V10.9851H6.96236V16.1839H15.8366V19.9872H6.96236V29H2.34943ZM20.2938 29V7.18182H24.9067V25.1967H34.2604V29H20.2938ZM56.9109 18.0909C56.9109 20.4702 56.4599 22.4943 55.5579 24.1634C54.663 25.8324 53.4414 27.1072 51.8931 27.9879C50.3519 28.8615 48.619 29.2983 46.6942 29.2983C44.7553 29.2983 43.0153 28.858 41.4741 27.9773C39.9329 27.0966 38.7148 25.8217 37.82 24.1527C36.9251 22.4837 36.4776 20.4631 36.4776 18.0909C36.4776 15.7116 36.9251 13.6875 37.82 12.0185C38.7148 10.3494 39.9329 9.07812 41.4741 8.20455C43.0153 7.32386 44.7553 6.88352 46.6942 6.88352C48.619 6.88352 50.3519 7.32386 51.8931 8.20455C53.4414 9.07812 54.663 10.3494 55.5579 12.0185C56.4599 13.6875 56.9109 15.7116 56.9109 18.0909ZM52.234 18.0909C52.234 16.5497 52.0032 15.25 51.5415 14.1918C51.087 13.1335 50.4442 12.331 49.6133 11.7841C48.7823 11.2372 47.8093 10.9638 46.6942 10.9638C45.5792 10.9638 44.6062 11.2372 43.7752 11.7841C42.9442 12.331 42.2979 13.1335 41.8363 14.1918C41.3817 15.25 41.1545 16.5497 41.1545 18.0909C41.1545 19.6321 41.3817 20.9318 41.8363 21.9901C42.2979 23.0483 42.9442 23.8509 43.7752 24.3977C44.6062 24.9446 45.5792 25.218 46.6942 25.218C47.8093 25.218 48.7823 24.9446 49.6133 24.3977C50.4442 23.8509 51.087 23.0483 51.5415 21.9901C52.0032 20.9318 52.234 19.6321 52.234 18.0909ZM64.8144 29L58.5715 7.18182H63.6105L67.222 22.3416H67.4031L71.3875 7.18182H75.7021L79.6759 22.3736H79.8676L83.4791 7.18182H88.5182L82.2753 29H77.7796L73.6247 14.7351H73.4543L69.3101 29H64.8144ZM109.632 7.18182V29H105.648L96.1554 15.2678H95.9956V29H91.3826V7.18182H95.4309L104.849 20.9034H105.04V7.18182H109.632Z" fill="#1F2937"/>
</svg>
