<svg width="36" height="36" viewBox="0 0 36 36" fill="none" xmlns="http://www.w3.org/2000/svg">
<path d="M24.6693 18.8331C24.6693 22.9997 21.7526 25.0831 18.2859 26.2914C18.1044 26.3529 17.9072 26.35 17.7276 26.2831C14.2526 25.0831 11.3359 22.9997 11.3359 18.8331V12.9997C11.3359 12.7787 11.4237 12.5667 11.58 12.4105C11.7363 12.2542 11.9483 12.1664 12.1693 12.1664C13.8359 12.1664 15.9193 11.1664 17.3693 9.89972C17.5458 9.74889 17.7704 9.66602 18.0026 9.66602C18.2348 9.66602 18.4594 9.74889 18.6359 9.89972C20.0943 11.1747 22.1693 12.1664 23.8359 12.1664C24.057 12.1664 24.2689 12.2542 24.4252 12.4105C24.5815 12.5667 24.6693 12.7787 24.6693 12.9997V18.8331Z" stroke="#16A34A" stroke-width="1.66667" stroke-linecap="round" stroke-linejoin="round"/>
<path d="M15.5 18.0007L17.1667 19.6673L20.5 16.334" stroke="#16A34A" stroke-width="1.66667" stroke-linecap="round" stroke-linejoin="round"/>
</svg>
