<svg width="28" height="28" viewBox="0 0 28 28" fill="none" xmlns="http://www.w3.org/2000/svg">
<path d="M18.6693 24.5V22.1667C18.6693 20.929 18.1776 19.742 17.3024 18.8668C16.4273 17.9917 15.2403 17.5 14.0026 17.5H7.0026C5.76493 17.5 4.57794 17.9917 3.70277 18.8668C2.8276 19.742 2.33594 20.929 2.33594 22.1667V24.5" stroke="white" stroke-width="2.33333" stroke-linecap="round" stroke-linejoin="round"/>
<path d="M10.5026 12.8333C13.0799 12.8333 15.1693 10.744 15.1693 8.16667C15.1693 5.58934 13.0799 3.5 10.5026 3.5C7.92528 3.5 5.83594 5.58934 5.83594 8.16667C5.83594 10.744 7.92528 12.8333 10.5026 12.8333Z" stroke="white" stroke-width="2.33333" stroke-linecap="round" stroke-linejoin="round"/>
<path d="M25.6641 24.5007V22.1673C25.6633 21.1334 25.3191 20.1289 24.6857 19.3117C24.0522 18.4945 23.1652 17.9108 22.1641 17.6523" stroke="white" stroke-width="2.33333" stroke-linecap="round" stroke-linejoin="round"/>
<path d="M18.6641 3.65234C19.6679 3.90936 20.5576 4.49316 21.193 5.31171C21.8283 6.13025 22.1732 7.13698 22.1732 8.17318C22.1732 9.20938 21.8283 10.2161 21.193 11.0346C20.5576 11.8532 19.6679 12.437 18.6641 12.694" stroke="white" stroke-width="2.33333" stroke-linecap="round" stroke-linejoin="round"/>
</svg>
