<svg width="28" height="28" viewBox="0 0 28 28" fill="none" xmlns="http://www.w3.org/2000/svg">
<path d="M23.3307 15.1659C23.3307 20.9992 19.2474 23.9159 14.3941 25.6076C14.1399 25.6937 13.8639 25.6896 13.6124 25.5959C8.7474 23.9159 4.66406 20.9992 4.66406 15.1659V6.99922C4.66406 6.6898 4.78698 6.39306 5.00577 6.17426C5.22456 5.95547 5.52131 5.83256 5.83073 5.83256C8.16406 5.83256 11.0807 4.43256 13.1107 2.65922C13.3579 2.44805 13.6723 2.33203 13.9974 2.33203C14.3225 2.33203 14.6369 2.44805 14.8841 2.65922C16.9257 4.44422 19.8307 5.83256 22.1641 5.83256C22.4735 5.83256 22.7702 5.95547 22.989 6.17426C23.2078 6.39306 23.3307 6.6898 23.3307 6.99922V15.1659Z" stroke="white" stroke-width="2.33333" stroke-linecap="round" stroke-linejoin="round"/>
</svg>
