<svg width="16" height="16" viewBox="0 0 16 16" fill="none" xmlns="http://www.w3.org/2000/svg">
<g clip-path="url(#clip0_1102_15364)">
<path d="M7.68714 1.52863C7.71635 1.4696 7.76148 1.41992 7.81744 1.38518C7.87339 1.35044 7.93794 1.33203 8.0038 1.33203C8.06966 1.33203 8.13421 1.35044 8.19017 1.38518C8.24612 1.41992 8.29126 1.4696 8.32047 1.52863L9.86047 4.64796C9.96192 4.85327 10.1117 5.0309 10.2969 5.1656C10.4821 5.30029 10.6972 5.38804 10.9238 5.42129L14.3678 5.92529C14.4331 5.93475 14.4944 5.96228 14.5448 6.00476C14.5952 6.04725 14.6328 6.10299 14.6532 6.1657C14.6735 6.2284 14.676 6.29556 14.6602 6.35958C14.6444 6.4236 14.611 6.48193 14.5638 6.52796L12.0731 8.95329C11.9089 9.11336 11.786 9.31095 11.715 9.52905C11.6441 9.74714 11.6272 9.97922 11.6658 10.2053L12.2538 13.632C12.2653 13.6972 12.2583 13.7643 12.2335 13.8258C12.2087 13.8872 12.1671 13.9404 12.1135 13.9793C12.0599 14.0182 11.9965 14.0413 11.9304 14.0459C11.8643 14.0505 11.7983 14.0364 11.7398 14.0053L8.66114 12.3866C8.45828 12.2801 8.23259 12.2245 8.00347 12.2245C7.77435 12.2245 7.54866 12.2801 7.3458 12.3866L4.2678 14.0053C4.20936 14.0362 4.1434 14.0502 4.07744 14.0455C4.01147 14.0408 3.94815 14.0177 3.89467 13.9788C3.84119 13.9399 3.79969 13.8868 3.77491 13.8254C3.75012 13.7641 3.74304 13.6971 3.75447 13.632L4.3418 10.206C4.3806 9.97978 4.36379 9.74756 4.29283 9.52933C4.22187 9.31109 4.09888 9.1134 3.93447 8.95329L1.4438 6.52863C1.3962 6.48265 1.36247 6.42422 1.34645 6.36001C1.33043 6.2958 1.33276 6.22837 1.35319 6.16542C1.37362 6.10247 1.41132 6.04652 1.46199 6.00395C1.51266 5.96138 1.57427 5.93389 1.6398 5.92463L5.08314 5.42129C5.30998 5.38829 5.5254 5.30067 5.71086 5.16595C5.89632 5.03124 6.04627 4.85347 6.1478 4.64796L7.68714 1.52863Z" fill="#F97316" stroke="#F97316" stroke-width="1.33333" stroke-linecap="round" stroke-linejoin="round"/>
</g>
<defs>
<clipPath id="clip0_1102_15364">
<rect width="16" height="16" fill="white"/>
</clipPath>
</defs>
</svg>
