<svg width="20" height="20" viewBox="0 0 20 20" fill="none" xmlns="http://www.w3.org/2000/svg">
<g clip-path="url(#clip0_115_2868)">
<path d="M6.66683 18.3346C7.12707 18.3346 7.50016 17.9615 7.50016 17.5013C7.50016 17.0411 7.12707 16.668 6.66683 16.668C6.20659 16.668 5.8335 17.0411 5.8335 17.5013C5.8335 17.9615 6.20659 18.3346 6.66683 18.3346Z" stroke="#4B5563" stroke-width="1.66667" stroke-linecap="round" stroke-linejoin="round"/>
<path d="M15.8333 18.3346C16.2936 18.3346 16.6667 17.9615 16.6667 17.5013C16.6667 17.0411 16.2936 16.668 15.8333 16.668C15.3731 16.668 15 17.0411 15 17.5013C15 17.9615 15.3731 18.3346 15.8333 18.3346Z" stroke="#4B5563" stroke-width="1.66667" stroke-linecap="round" stroke-linejoin="round"/>
<path d="M1.7085 1.70703H3.37516L5.59183 12.057C5.67314 12.4361 5.88405 12.7749 6.18826 13.0152C6.49246 13.2556 6.87092 13.3823 7.2585 13.3737H15.4085C15.7878 13.3731 16.1556 13.2431 16.451 13.0052C16.7465 12.7673 16.9519 12.4358 17.0335 12.0654L18.4085 5.8737H4.26683" stroke="#4B5563" stroke-width="1.66667" stroke-linecap="round" stroke-linejoin="round"/>
</g>
<defs>
<clipPath id="clip0_115_2868">
<rect width="20" height="20" fill="white"/>
</clipPath>
</defs>
</svg>
