<svg width="20" height="20" viewBox="0 0 20 20" fill="none" xmlns="http://www.w3.org/2000/svg">
<g clip-path="url(#clip0_75_4969)">
<path d="M8.94116 4.22891C10.8817 3.99766 12.8445 4.40787 14.53 5.3969C16.2155 6.38593 17.531 7.89943 18.2756 9.70627C18.345 9.89331 18.345 10.099 18.2756 10.2861C17.9694 11.0283 17.5648 11.726 17.0726 12.3604" stroke="#4B5563" stroke-width="1.66612" stroke-linecap="round" stroke-linejoin="round"/>
<path d="M11.7327 11.7936C11.2613 12.2488 10.63 12.5007 9.97477 12.4951C9.3195 12.4894 8.69267 12.2265 8.22931 11.7632C7.76594 11.2998 7.5031 10.673 7.49741 10.0177C7.49171 9.36241 7.74362 8.73112 8.19886 8.25977" stroke="#4B5563" stroke-width="1.66612" stroke-linecap="round" stroke-linejoin="round"/>
<path d="M14.5611 14.5772C13.456 15.2318 12.2231 15.641 10.9459 15.7771C9.66877 15.9132 8.37727 15.773 7.15907 15.366C5.94087 14.959 4.82448 14.2947 3.88564 13.4182C2.94679 12.5417 2.20747 11.4735 1.71784 10.2861C1.64841 10.0991 1.64841 9.89333 1.71784 9.70629C2.45646 7.9151 3.75606 6.41175 5.42162 5.42188" stroke="#4B5563" stroke-width="1.66612" stroke-linecap="round" stroke-linejoin="round"/>
<path d="M1.66602 1.66602L18.3272 18.3272" stroke="#4B5563" stroke-width="1.66612" stroke-linecap="round" stroke-linejoin="round"/>
</g>
<defs>
<clipPath id="clip0_75_4969">
<rect width="19.9934" height="19.9934" fill="white"/>
</clipPath>
</defs>
</svg>
