<svg width="48" height="48" viewBox="0 0 48 48" fill="none" xmlns="http://www.w3.org/2000/svg">
<path d="M42.8401 21.8447C43.1981 21.6868 43.502 21.4273 43.7139 21.0983C43.9259 20.7694 44.0368 20.3855 44.0327 19.9942C44.0287 19.6029 43.9099 19.2214 43.6912 18.8969C43.4724 18.5724 43.1633 18.3192 42.8021 18.1687L25.6601 10.3607C25.139 10.123 24.5729 10 24.0001 10C23.4273 10 22.8612 10.123 22.3401 10.3607L5.20008 18.1607C4.84402 18.3167 4.54112 18.573 4.32842 18.8983C4.11572 19.2237 4.00244 19.604 4.00244 19.9927C4.00244 20.3814 4.11572 20.7617 4.32842 21.0871C4.54112 21.4124 4.84402 21.6688 5.20008 21.8247L22.3401 29.6407C22.8612 29.8784 23.4273 30.0014 24.0001 30.0014C24.5729 30.0014 25.139 29.8784 25.6601 29.6407L42.8401 21.8447Z" stroke="#4B5563" stroke-width="4" stroke-linecap="round" stroke-linejoin="round"/>
<path d="M44 20V32" stroke="#4B5563" stroke-width="4" stroke-linecap="round" stroke-linejoin="round"/>
<path d="M12 25V32C12 33.5913 13.2643 35.1174 15.5147 36.2426C17.7652 37.3679 20.8174 38 24 38C27.1826 38 30.2348 37.3679 32.4853 36.2426C34.7357 35.1174 36 33.5913 36 32V25" stroke="#4B5563" stroke-width="4" stroke-linecap="round" stroke-linejoin="round"/>
</svg>
