<svg width="28" height="28" viewBox="0 0 28 28" fill="none" xmlns="http://www.w3.org/2000/svg">
<path d="M18.0833 8.74935L20.7666 11.4327C20.9847 11.6464 21.2779 11.7662 21.5833 11.7662C21.8886 11.7662 22.1818 11.6464 22.3999 11.4327L24.8499 8.98268C25.0637 8.7646 25.1834 8.47139 25.1834 8.16602C25.1834 7.86064 25.0637 7.56743 24.8499 7.34935L22.1666 4.66602" stroke="#2F5DAA" stroke-width="2.33333" stroke-linecap="round" stroke-linejoin="round"/>
<path d="M24.5 2.33398L13.3 13.534" stroke="#2F5DAA" stroke-width="2.33333" stroke-linecap="round" stroke-linejoin="round"/>
<path d="M8.74992 24.4993C12.2937 24.4993 15.1666 21.6265 15.1666 18.0827C15.1666 14.5389 12.2937 11.666 8.74992 11.666C5.20609 11.666 2.33325 14.5389 2.33325 18.0827C2.33325 21.6265 5.20609 24.4993 8.74992 24.4993Z" stroke="#2F5DAA" stroke-width="2.33333" stroke-linecap="round" stroke-linejoin="round"/>
</svg>
