<svg width="24" height="24" viewBox="0 0 24 24" fill="none" xmlns="http://www.w3.org/2000/svg">
<g clip-path="url(#clip0_74_1835)">
<path d="M21.4183 10.9219C21.5973 10.8429 21.7492 10.7132 21.8552 10.5487C21.9611 10.3843 22.0166 10.1923 22.0145 9.9967C22.0125 9.80106 21.9531 9.61032 21.8438 9.44809C21.7344 9.28586 21.5799 9.15928 21.3993 9.08403L12.8289 5.18034C12.5684 5.0615 12.2854 5 11.999 5C11.7126 5 11.4296 5.0615 11.1691 5.18034L2.59975 9.08003C2.42173 9.158 2.27029 9.28615 2.16395 9.44882C2.05761 9.61149 2.00098 9.80162 2.00098 9.99596C2.00098 10.1903 2.05761 10.3804 2.16395 10.5431C2.27029 10.7058 2.42173 10.8339 2.59975 10.9119L11.1691 14.8196C11.4296 14.9384 11.7126 14.9999 11.999 14.9999C12.2854 14.9999 12.5684 14.9384 12.8289 14.8196L21.4183 10.9219Z" stroke="white" stroke-width="1.99984" stroke-linecap="round" stroke-linejoin="round"/>
<path d="M21.998 10V16" stroke="white" stroke-width="1.99984" stroke-linecap="round" stroke-linejoin="round"/>
<path d="M5.99951 12.498V15.998C5.99951 16.7937 6.63165 17.5568 7.75687 18.1194C8.88209 18.682 10.4082 18.998 11.9995 18.998C13.5908 18.998 15.1169 18.682 16.2422 18.1194C17.3674 17.5568 17.9995 16.7937 17.9995 15.998V12.498" stroke="white" stroke-width="1.99984" stroke-linecap="round" stroke-linejoin="round"/>
</g>
<defs>
<clipPath id="clip0_74_1835">
<rect width="23.9981" height="23.9981" fill="white"/>
</clipPath>
</defs>
</svg>
