<svg width="28" height="28" viewBox="0 0 28 28" fill="none" xmlns="http://www.w3.org/2000/svg">
<path d="M22.1667 12.834H5.83333C4.54467 12.834 3.5 13.8787 3.5 15.1673V23.334C3.5 24.6226 4.54467 25.6673 5.83333 25.6673H22.1667C23.4553 25.6673 24.5 24.6226 24.5 23.334V15.1673C24.5 13.8787 23.4553 12.834 22.1667 12.834Z" stroke="#2F5DAA" stroke-width="2.33333" stroke-linecap="round" stroke-linejoin="round"/>
<path d="M8.16675 12.834V8.16732C8.16675 6.62022 8.78133 5.13649 9.87529 4.04253C10.9693 2.94857 12.453 2.33398 14.0001 2.33398C15.5472 2.33398 17.0309 2.94857 18.1249 4.04253C19.2188 5.13649 19.8334 6.62022 19.8334 8.16732V12.834" stroke="#2F5DAA" stroke-width="2.33333" stroke-linecap="round" stroke-linejoin="round"/>
</svg>
