<svg width="16" height="16" viewBox="0 0 16 16" fill="none" xmlns="http://www.w3.org/2000/svg">
<path d="M8 11.332V14.6654" stroke="#EF4444" stroke-width="1.33333" stroke-linecap="round" stroke-linejoin="round"/>
<path d="M5.9987 7.17203C5.99857 7.42009 5.92924 7.66319 5.79851 7.874C5.66778 8.08481 5.48084 8.25498 5.2587 8.36536L4.07203 8.96536C3.84989 9.07575 3.66295 9.24592 3.53222 9.45673C3.40149 9.66754 3.33216 9.91064 3.33203 10.1587V10.6654C3.33203 10.8422 3.40227 11.0117 3.52729 11.1368C3.65232 11.2618 3.82189 11.332 3.9987 11.332H11.9987C12.1755 11.332 12.3451 11.2618 12.4701 11.1368C12.5951 11.0117 12.6654 10.8422 12.6654 10.6654V10.1587C12.6652 9.91064 12.5959 9.66754 12.4652 9.45673C12.3345 9.24592 12.1475 9.07575 11.9254 8.96536L10.7387 8.36536C10.5166 8.25498 10.3296 8.08481 10.1989 7.874C10.0682 7.66319 9.99883 7.42009 9.9987 7.17203V4.66536C9.9987 4.48855 10.0689 4.31898 10.194 4.19396C10.319 4.06894 10.4886 3.9987 10.6654 3.9987C11.019 3.9987 11.3581 3.85822 11.6082 3.60817C11.8582 3.35813 11.9987 3.01899 11.9987 2.66536C11.9987 2.31174 11.8582 1.9726 11.6082 1.72256C11.3581 1.47251 11.019 1.33203 10.6654 1.33203H5.33203C4.97841 1.33203 4.63927 1.47251 4.38922 1.72256C4.13917 1.9726 3.9987 2.31174 3.9987 2.66536C3.9987 3.01899 4.13917 3.35813 4.38922 3.60817C4.63927 3.85822 4.97841 3.9987 5.33203 3.9987C5.50884 3.9987 5.67841 4.06894 5.80344 4.19396C5.92846 4.31898 5.9987 4.48855 5.9987 4.66536V7.17203Z" stroke="#EF4444" stroke-width="1.33333" stroke-linecap="round" stroke-linejoin="round"/>
</svg>
