<svg width="28" height="28" viewBox="0 0 28 28" fill="none" xmlns="http://www.w3.org/2000/svg">
<path d="M11.9805 24.5C12.1853 24.8547 12.4798 25.1492 12.8345 25.354C13.1892 25.5588 13.5916 25.6666 14.0011 25.6666C14.4107 25.6666 14.8131 25.5588 15.1678 25.354C15.5225 25.1492 15.817 24.8547 16.0218 24.5" stroke="white" stroke-width="2.33333" stroke-linecap="round" stroke-linejoin="round"/>
<path d="M3.80481 17.879C3.65241 18.0461 3.55183 18.2538 3.51531 18.477C3.4788 18.7001 3.50792 18.9291 3.59914 19.136C3.69036 19.3429 3.83974 19.5188 4.02911 19.6424C4.21849 19.766 4.43969 19.8319 4.66581 19.832H23.3325C23.5586 19.8321 23.7798 19.7665 23.9693 19.6432C24.1588 19.5198 24.3084 19.3441 24.3999 19.1373C24.4913 18.9305 24.5207 18.7016 24.4845 18.4785C24.4483 18.2553 24.348 18.0474 24.1958 17.8802C22.6441 16.2807 20.9991 14.5809 20.9991 9.33203C20.9991 7.47552 20.2617 5.69504 18.9489 4.38228C17.6361 3.06953 15.8557 2.33203 13.9991 2.33203C12.1426 2.33203 10.3622 3.06953 9.0494 4.38228C7.73665 5.69504 6.99915 7.47552 6.99915 9.33203C6.99915 14.5809 5.35298 16.2807 3.80481 17.879Z" stroke="white" stroke-width="2.33333" stroke-linecap="round" stroke-linejoin="round"/>
</svg>
