<svg width="20" height="20" viewBox="0 0 20 20" fill="none" xmlns="http://www.w3.org/2000/svg">
<path d="M1.72126 10.2907C1.65183 10.1037 1.65183 9.89795 1.72126 9.71091C2.39745 8.07133 3.54525 6.66945 5.01915 5.68299C6.49304 4.69653 8.22665 4.16992 10.0002 4.16992C11.7737 4.16992 13.5073 4.69653 14.9812 5.68299C16.4551 6.66945 17.6029 8.07133 18.2791 9.71091C18.3486 9.89795 18.3486 10.1037 18.2791 10.2907C17.6029 11.9303 16.4551 13.3322 14.9812 14.3186C13.5073 15.3051 11.7737 15.8317 10.0002 15.8317C8.22665 15.8317 6.49304 15.3051 5.01915 14.3186C3.54525 13.3322 2.39745 11.9303 1.72126 10.2907Z" stroke="#4B5563" stroke-width="1.66612" stroke-linecap="round" stroke-linejoin="round"/>
<path d="M10.0002 12.5003C11.3804 12.5003 12.4993 11.3814 12.4993 10.0011C12.4993 8.62087 11.3804 7.50195 10.0002 7.50195C8.6199 7.50195 7.50098 8.62087 7.50098 10.0011C7.50098 11.3814 8.6199 12.5003 10.0002 12.5003Z" stroke="#4B5563" stroke-width="1.66612" stroke-linecap="round" stroke-linejoin="round"/>
</svg>
