<svg width="14" height="14" viewBox="0 0 14 14" fill="none" xmlns="http://www.w3.org/2000/svg">
<path d="M11.8586 10.2762L7.49136 2.63356C7.39613 2.46554 7.25804 2.32578 7.09117 2.22854C6.9243 2.13131 6.73462 2.08008 6.54149 2.08008C6.34836 2.08008 6.15868 2.13131 5.99181 2.22854C5.82494 2.32578 5.68685 2.46554 5.59162 2.63356L1.22442 10.2762C1.12817 10.4429 1.0777 10.632 1.07813 10.8245C1.07855 11.017 1.12986 11.206 1.22685 11.3722C1.32384 11.5385 1.46306 11.6762 1.63041 11.7713C1.79775 11.8664 1.98727 11.9156 2.17975 11.9139H10.9141C11.1057 11.9137 11.2938 11.8631 11.4597 11.7672C11.6255 11.6713 11.7631 11.5334 11.8588 11.3675C11.9545 11.2015 12.0049 11.0133 12.0048 10.8218C12.0048 10.6302 11.9543 10.4421 11.8586 10.2762Z" stroke="#F59E0B" stroke-width="1.0918" stroke-linecap="round" stroke-linejoin="round"/>
<path d="M6.55469 5.36133V7.54493" stroke="#F59E0B" stroke-width="1.0918" stroke-linecap="round" stroke-linejoin="round"/>
<path d="M6.55469 9.73047H6.56015" stroke="#F59E0B" stroke-width="1.0918" stroke-linecap="round" stroke-linejoin="round"/>
</svg>
