<svg width="36" height="36" viewBox="0 0 36 36" fill="none" xmlns="http://www.w3.org/2000/svg">
<path d="M23.8333 17.166H12.1667C11.2462 17.166 10.5 17.9122 10.5 18.8327V24.666C10.5 25.5865 11.2462 26.3327 12.1667 26.3327H23.8333C24.7538 26.3327 25.5 25.5865 25.5 24.666V18.8327C25.5 17.9122 24.7538 17.166 23.8333 17.166Z" stroke="#F97316" stroke-width="1.66667" stroke-linecap="round" stroke-linejoin="round"/>
<path d="M13.8359 17.166V13.8327C13.8359 12.7276 14.2749 11.6678 15.0563 10.8864C15.8377 10.105 16.8975 9.66602 18.0026 9.66602C19.1077 9.66602 20.1675 10.105 20.9489 10.8864C21.7303 11.6678 22.1693 12.7276 22.1693 13.8327V17.166" stroke="#F97316" stroke-width="1.66667" stroke-linecap="round" stroke-linejoin="round"/>
</svg>
