<svg width="20" height="20" viewBox="0 0 20 20" fill="none" xmlns="http://www.w3.org/2000/svg">
<g clip-path="url(#clip0_74_1887)">
<path d="M15.828 9.16406H4.16514C3.24497 9.16406 2.49902 9.91001 2.49902 10.8302V16.6616C2.49902 17.5818 3.24497 18.3277 4.16514 18.3277H15.828C16.7481 18.3277 17.4941 17.5818 17.4941 16.6616V10.8302C17.4941 9.91001 16.7481 9.16406 15.828 9.16406Z" stroke="#4B5563" stroke-width="1.66612" stroke-linecap="round" stroke-linejoin="round"/>
<path d="M5.83154 9.16354V5.83131C5.83154 4.7266 6.27038 3.66715 7.05153 2.886C7.83267 2.10486 8.89213 1.66602 9.99683 1.66602C11.1015 1.66602 12.161 2.10486 12.9421 2.886C13.7233 3.66715 14.1621 4.7266 14.1621 5.83131V9.16354" stroke="#4B5563" stroke-width="1.66612" stroke-linecap="round" stroke-linejoin="round"/>
</g>
<defs>
<clipPath id="clip0_74_1887">
<rect width="19.9934" height="19.9934" fill="white"/>
</clipPath>
</defs>
</svg>
