<svg width="19" height="19" viewBox="0 0 19 19" fill="none" xmlns="http://www.w3.org/2000/svg">
<path d="M17.4064 13.2674V15.7674C17.4074 15.9995 17.3598 16.2292 17.2669 16.4419C17.1739 16.6545 17.0375 16.8454 16.8665 17.0023C16.6955 17.1592 16.4936 17.2786 16.2737 17.353C16.0539 17.4273 15.8209 17.455 15.5898 17.4341C13.0255 17.1554 10.5623 16.2792 8.3981 14.8757C6.38463 13.5963 4.67755 11.8892 3.39811 9.87573C1.98975 7.70174 1.11331 5.22656 0.839772 2.65073C0.818947 2.42029 0.846334 2.18803 0.920189 1.96875C0.994043 1.74947 1.11275 1.54797 1.26874 1.37708C1.42474 1.20619 1.61461 1.06966 1.82626 0.976167C2.03792 0.882677 2.26672 0.834283 2.49811 0.834065H4.99811C5.40253 0.830085 5.7946 0.973297 6.10124 1.23701C6.40788 1.50072 6.60817 1.86694 6.66477 2.2674C6.77029 3.06745 6.96598 3.853 7.24811 4.60907C7.36022 4.90733 7.38449 5.23149 7.31803 5.54313C7.25156 5.85477 7.09716 6.14082 6.8731 6.3674L5.81477 7.42573C7.00107 9.51202 8.72848 11.2394 10.8148 12.4257L11.8731 11.3674C12.0997 11.1433 12.3857 10.9889 12.6974 10.9225C13.009 10.856 13.3332 10.8803 13.6314 10.9924C14.3875 11.2745 15.1731 11.4702 15.9731 11.5757C16.3779 11.6328 16.7476 11.8367 17.0119 12.1486C17.2762 12.4606 17.4166 12.8587 17.4064 13.2674Z" stroke="#4B5563" stroke-width="1.66667" stroke-linecap="round" stroke-linejoin="round"/>
</svg>
