<svg width="14" height="14" viewBox="0 0 14 14" fill="none" xmlns="http://www.w3.org/2000/svg">
<path d="M7 9.91797V12.8346" stroke="#EF4444" stroke-width="1.16667" stroke-linecap="round" stroke-linejoin="round"/>
<path d="M5.24935 6.27797C5.24923 6.49502 5.18857 6.70773 5.07419 6.89219C4.9598 7.07665 4.79622 7.22555 4.60185 7.32214L3.56352 7.84714C3.36914 7.94372 3.20557 8.09262 3.09118 8.27708C2.97679 8.46154 2.91613 8.67425 2.91602 8.8913V9.33464C2.91602 9.48934 2.97747 9.63772 3.08687 9.74711C3.19627 9.85651 3.34464 9.91797 3.49935 9.91797H10.4993C10.6541 9.91797 10.8024 9.85651 10.9118 9.74711C11.0212 9.63772 11.0827 9.48934 11.0827 9.33464V8.8913C11.0826 8.67425 11.0219 8.46154 10.9075 8.27708C10.7931 8.09262 10.6296 7.94372 10.4352 7.84714L9.39685 7.32214C9.20248 7.22555 9.0389 7.07665 8.92451 6.89219C8.81013 6.70773 8.74946 6.49502 8.74935 6.27797V4.08464C8.74935 3.92993 8.81081 3.78155 8.9202 3.67216C9.0296 3.56276 9.17797 3.5013 9.33268 3.5013C9.6421 3.5013 9.93885 3.37839 10.1576 3.15959C10.3764 2.9408 10.4993 2.64405 10.4993 2.33464C10.4993 2.02522 10.3764 1.72847 10.1576 1.50968C9.93885 1.29089 9.6421 1.16797 9.33268 1.16797H4.66602C4.3566 1.16797 4.05985 1.29089 3.84106 1.50968C3.62227 1.72847 3.49935 2.02522 3.49935 2.33464C3.49935 2.64405 3.62227 2.9408 3.84106 3.15959C4.05985 3.37839 4.3566 3.5013 4.66602 3.5013C4.82073 3.5013 4.9691 3.56276 5.07849 3.67216C5.18789 3.78155 5.24935 3.92993 5.24935 4.08464V6.27797Z" stroke="#EF4444" stroke-width="1.16667" stroke-linecap="round" stroke-linejoin="round"/>
</svg>
