<svg width="28" height="28" viewBox="0 0 28 28" fill="none" xmlns="http://www.w3.org/2000/svg">
<path d="M17.5026 2.33398H10.5026C9.85827 2.33398 9.33594 2.85632 9.33594 3.50065V5.83398C9.33594 6.47832 9.85827 7.00065 10.5026 7.00065H17.5026C18.1469 7.00065 18.6693 6.47832 18.6693 5.83398V3.50065C18.6693 2.85632 18.1469 2.33398 17.5026 2.33398Z" stroke="white" stroke-width="2.33333" stroke-linecap="round" stroke-linejoin="round"/>
<path d="M18.6641 4.66602H20.9974C21.6162 4.66602 22.2097 4.91185 22.6473 5.34943C23.0849 5.78702 23.3307 6.38051 23.3307 6.99935V23.3327C23.3307 23.9515 23.0849 24.545 22.6473 24.9826C22.2097 25.4202 21.6162 25.666 20.9974 25.666H6.9974C6.37856 25.666 5.78506 25.4202 5.34748 24.9826C4.9099 24.545 4.66406 23.9515 4.66406 23.3327V6.99935C4.66406 6.38051 4.9099 5.78702 5.34748 5.34943C5.78506 4.91185 6.37856 4.66602 6.9974 4.66602H9.33073" stroke="white" stroke-width="2.33333" stroke-linecap="round" stroke-linejoin="round"/>
<path d="M14 12.834H18.6667" stroke="white" stroke-width="2.33333" stroke-linecap="round" stroke-linejoin="round"/>
<path d="M14 18.666H18.6667" stroke="white" stroke-width="2.33333" stroke-linecap="round" stroke-linejoin="round"/>
<path d="M9.33594 12.834H9.3476" stroke="white" stroke-width="2.33333" stroke-linecap="round" stroke-linejoin="round"/>
<path d="M9.33594 18.666H9.3476" stroke="white" stroke-width="2.33333" stroke-linecap="round" stroke-linejoin="round"/>
</svg>
