<svg width="20" height="20" viewBox="0 0 20 20" fill="none" xmlns="http://www.w3.org/2000/svg">
<path d="M12.6667 2.5C13.1063 2.50626 13.5256 2.68598 13.8333 3L17 6.16667C17.314 6.47438 17.4937 6.89372 17.5 7.33333V15.8333C17.5 16.2754 17.3244 16.6993 17.0118 17.0118C16.6993 17.3244 16.2754 17.5 15.8333 17.5H4.16667C3.72464 17.5 3.30072 17.3244 2.98816 17.0118C2.67559 16.6993 2.5 16.2754 2.5 15.8333V4.16667C2.5 3.72464 2.67559 3.30072 2.98816 2.98816C3.30072 2.67559 3.72464 2.5 4.16667 2.5H12.6667Z" stroke="white" stroke-width="1.66667" stroke-linecap="round" stroke-linejoin="round"/>
<path d="M14.1654 17.4987V11.6654C14.1654 11.4444 14.0776 11.2324 13.9213 11.0761C13.765 10.9198 13.553 10.832 13.332 10.832H6.66536C6.44435 10.832 6.23239 10.9198 6.07611 11.0761C5.91983 11.2324 5.83203 11.4444 5.83203 11.6654V17.4987" stroke="white" stroke-width="1.66667" stroke-linecap="round" stroke-linejoin="round"/>
<path d="M5.83203 2.5V5.83333C5.83203 6.05435 5.91983 6.26631 6.07611 6.42259C6.23239 6.57887 6.44435 6.66667 6.66536 6.66667H12.4987" stroke="white" stroke-width="1.66667" stroke-linecap="round" stroke-linejoin="round"/>
</svg>
