<svg width="7" height="20" viewBox="0 0 7 20" fill="none" xmlns="http://www.w3.org/2000/svg">
<path d="M3.9375 13.6307C3.53646 13.6307 3.17022 13.5329 2.83878 13.3374C2.50734 13.1385 2.24219 12.8733 2.04332 12.5419C1.84777 12.2105 1.75 11.8442 1.75 11.4432C1.75 11.0388 1.84777 10.6726 2.04332 10.3445C2.24219 10.013 2.50734 9.74953 2.83878 9.55398C3.17022 9.35511 3.53646 9.25568 3.9375 9.25568C4.34186 9.25568 4.7081 9.35511 5.03622 9.55398C5.36766 9.74953 5.63116 10.013 5.8267 10.3445C6.02557 10.6726 6.125 11.0388 6.125 11.4432C6.125 11.8442 6.02557 12.2105 5.8267 12.5419C5.63116 12.8733 5.36766 13.1385 5.03622 13.3374C4.7081 13.5329 4.34186 13.6307 3.9375 13.6307Z" fill="#2F5DAA"/>
</svg>
