<svg width="28" height="28" viewBox="0 0 28 28" fill="none" xmlns="http://www.w3.org/2000/svg">
<path d="M19.8333 4.66797H17.4999C16.8556 4.66797 16.3333 5.1903 16.3333 5.83464V22.168C16.3333 22.8123 16.8556 23.3346 17.4999 23.3346H19.8333C20.4776 23.3346 20.9999 22.8123 20.9999 22.168V5.83464C20.9999 5.1903 20.4776 4.66797 19.8333 4.66797Z" stroke="white" stroke-width="2.33333" stroke-linecap="round" stroke-linejoin="round"/>
<path d="M10.5 4.66797H8.16667C7.52233 4.66797 7 5.1903 7 5.83464V22.168C7 22.8123 7.52233 23.3346 8.16667 23.3346H10.5C11.1443 23.3346 11.6667 22.8123 11.6667 22.168V5.83464C11.6667 5.1903 11.1443 4.66797 10.5 4.66797Z" stroke="white" stroke-width="2.33333" stroke-linecap="round" stroke-linejoin="round"/>
</svg>
