<svg width="24" height="24" viewBox="0 0 24 24" fill="none" xmlns="http://www.w3.org/2000/svg">
<path d="M11 4.70007C10.9998 4.56079 10.9583 4.42468 10.8809 4.30893C10.8034 4.19318 10.6934 4.10298 10.5647 4.0497C10.436 3.99643 10.2944 3.98247 10.1577 4.00958C10.0211 4.0367 9.89559 4.10368 9.797 4.20207L6.413 7.58507C6.2824 7.71645 6.12703 7.8206 5.95589 7.8915C5.78475 7.96239 5.60124 7.99862 5.416 7.99808H3C2.73478 7.99808 2.48043 8.10343 2.29289 8.29097C2.10536 8.4785 2 8.73286 2 8.99808V14.9981C2 15.2633 2.10536 15.5176 2.29289 15.7052C2.48043 15.8927 2.73478 15.9981 3 15.9981H5.416C5.60124 15.9975 5.78475 16.0338 5.95589 16.1047C6.12703 16.1755 6.2824 16.2797 6.413 16.4111L9.796 19.7951C9.8946 19.8939 10.0203 19.9612 10.1572 19.9885C10.2941 20.0157 10.436 20.0018 10.5649 19.9483C10.6939 19.8949 10.804 19.8044 10.8815 19.6883C10.959 19.5721 11.0002 19.4357 11 19.2961V4.70007Z" stroke="white" stroke-width="2.33" stroke-linecap="round" stroke-linejoin="round"/>
<path d="M16 9C16.6491 9.86548 17 10.9181 17 12C17 13.0819 16.6491 14.1345 16 15" stroke="white" stroke-width="2.33" stroke-linecap="round" stroke-linejoin="round"/>
<path d="M19.3638 18.3647C20.1995 17.529 20.8625 16.5368 21.3148 15.4449C21.7671 14.353 21.9998 13.1826 21.9998 12.0007C21.9998 10.8188 21.7671 9.64848 21.3148 8.55654C20.8625 7.4646 20.1995 6.47245 19.3638 5.63672" stroke="white" stroke-width="2.33" stroke-linecap="round" stroke-linejoin="round"/>
</svg>
